<svg width="31" height="26" viewBox="0 0 31 26" fill="none" xmlns="http://www.w3.org/2000/svg">
<path d="M1.80005 25.35C1.24776 25.35 0.800049 24.9023 0.800049 24.35V20.1064C0.800049 19.5541 1.24776 19.1064 1.80005 19.1064H1.85838C2.41067 19.1064 2.85838 19.5541 2.85838 20.1064V22.2917C2.85838 22.844 3.3061 23.2917 3.85838 23.2917H6.04366C6.59594 23.2917 7.04366 23.7394 7.04366 24.2917V24.35C7.04366 24.9023 6.59594 25.35 6.04366 25.35H1.80005ZM25.711 25.35C25.1587 25.35 24.711 24.9023 24.711 24.35V24.2917C24.711 23.7394 25.1587 23.2917 25.711 23.2917H27.8963C28.4486 23.2917 28.8963 22.844 28.8963 22.2917V20.1064C28.8963 19.5541 29.344 19.1064 29.8963 19.1064H29.9546C30.5069 19.1064 30.9546 19.5541 30.9546 20.1064V24.35C30.9546 24.9023 30.5069 25.35 29.9546 25.35H25.711ZM5.67658 21.5421C5.12429 21.5421 4.67658 21.0944 4.67658 20.5421V5.42364C4.67658 4.87135 5.12429 4.42364 5.67658 4.42364H6.42102C6.97331 4.42364 7.42102 4.87135 7.42102 5.42364V20.5421C7.42102 21.0944 6.97331 21.5421 6.42102 21.5421H5.67658ZM9.54797 21.5421C9.15009 21.5421 8.82755 21.2196 8.82755 20.8217V5.14405C8.82755 4.74618 9.15009 4.42364 9.54797 4.42364C9.94584 4.42364 10.2684 4.74618 10.2684 5.14405V20.8217C10.2684 21.2196 9.94584 21.5421 9.54797 21.5421ZM14.0128 21.5421C13.4605 21.5421 13.0128 21.0944 13.0128 20.5421V5.42364C13.0128 4.87135 13.4605 4.42364 14.0128 4.42364H14.8602C15.4125 4.42364 15.8602 4.87135 15.8602 5.42364V20.5421C15.8602 21.0944 15.4125 21.5421 14.8602 21.5421H14.0128ZM18.301 21.5421C17.7487 21.5421 17.301 21.0944 17.301 20.5421V5.42364C17.301 4.87135 17.7487 4.42364 18.301 4.42364H20.452C21.0043 4.42364 21.452 4.87135 21.452 5.42364V20.5421C21.452 21.0944 21.0043 21.5421 20.452 21.5421H18.301ZM23.6132 21.5421C23.2154 21.5421 22.8928 21.2196 22.8928 20.8217V5.14405C22.8928 4.74618 23.2154 4.42364 23.6132 4.42364C24.0111 4.42364 24.3337 4.74618 24.3337 5.14405V20.8217C24.3337 21.2196 24.0111 21.5421 23.6132 21.5421ZM26.392 21.5421C26.032 21.5421 25.7402 21.2503 25.7402 20.8903V5.07544C25.7402 4.71546 26.032 4.42364 26.392 4.42364C26.752 4.42364 27.0438 4.71546 27.0438 5.07544V20.8903C27.0438 21.2503 26.752 21.5421 26.392 21.5421ZM1.80005 6.89364C1.24776 6.89364 0.800049 6.44592 0.800049 5.89364V1.65003C0.800049 1.09774 1.24776 0.650024 1.80005 0.650024H6.04366C6.59594 0.650024 7.04366 1.09774 7.04366 1.65002V1.70836C7.04366 2.26064 6.59594 2.70836 6.04366 2.70836H3.85838C3.3061 2.70836 2.85838 3.15607 2.85838 3.70836V5.89364C2.85838 6.44592 2.41067 6.89364 1.85838 6.89364H1.80005ZM29.8963 6.89364C29.344 6.89364 28.8963 6.44592 28.8963 5.89364V3.70836C28.8963 3.15607 28.4486 2.70836 27.8963 2.70836H25.711C25.1587 2.70836 24.711 2.26064 24.711 1.70836V1.65002C24.711 1.09774 25.1587 0.650024 25.711 0.650024H29.9546C30.5069 0.650024 30.9546 1.09774 30.9546 1.65002V5.89363C30.9546 6.44592 30.5069 6.89364 29.9546 6.89364H29.8963Z" fill="#EDDEF8"/>
</svg>
